<?xml version="1.0" encoding="UTF-8" standalone="no"?>
<svg xmlns="http://www.w3.org/2000/svg" id="svg2" height="200" width="230" version="1.1">
  <path
     id="text4"
     style="font-size:197px;font-family:'EnglishScriptEF DemiBold';fill:#fcae80"
     aria-label="P"
     d="m 209.3947,44.727 c 0,-11.032 -5.91,-18.912 -14.184,-25.807 3.94,-3.152 8.668,-6.107 13.199,-8.471 l -0.985,-2.561 c -4.925,2.955 -10.047,5.713 -14.775,8.865 -11.623,-7.88 -26.201,-9.653 -39.794,-9.653 -30.338,0 -60.084997,10.244 -81.754997,31.914 -8.274,8.077 -16.154,19.503 -16.154,31.52 0,13.396 10.047,19.503 22.458,19.503 33.489997,0 58.311997,-36.839 67.570997,-65.404 l -2.561,-0.591 -0.591,1.379 c -8.274,19.306 -18.518,35.066 -35.46,47.871 C 97.498703,79.99 86.860703,85.9 75.434703,85.9 c -9.85,0 -16.548,-5.122 -16.548,-15.366 0,-18.715 20.488,-36.445 35.263,-45.113 C 111.8797,14.98 132.5647,10.055 153.0527,10.055 c 12.214,0 26.595,1.773 37.036,8.668 -12.214,8.668 -23.837,17.927 -34.081,28.959 -12.411,13.199 -22.852,28.368 -33.687,42.946 -18.715,25.413 -40.581997,53.19 -75.253997,53.19 -6.895,0 -22.064,-2.167 -22.064,-11.623 0,-1.379 0.985,-5.319 2.955,-5.319 1.97,0 4.137,2.758 8.077,2.758 4.137,0 7.486,-3.349 7.486,-7.486 0,-4.334 -3.349,-6.107 -7.289,-6.107 -7.88,0 -15.76,7.683 -15.76,15.563 0,13.199 17.927,15.76 27.777,15.76 15.563,0 32.899,-3.349 46.886,-10.244 22.654997,-11.229 36.444997,-30.929 49.052997,-52.008 7.486,-12.805 14.775,-25.61 23.64,-37.627 7.092,-9.653 14.972,-19.897 25.019,-26.595 5.122,3.743 6.107,11.229 6.107,17.139 0,13.002 -5.319,25.413 -13.987,35.066 -5.319,5.91 -12.805,12.608 -21.276,12.608 -3.546,0 -6.501,-1.182 -6.501,-5.319 0,-6.304 6.107,-11.032 11.032,-13.987 l -0.788,-2.167 c -6.501,1.182 -13.987,9.653 -13.987,16.351 0,6.107 5.122,8.668 10.638,8.668 22.852,0 45.31,-21.276 45.31,-44.522 z" />
</svg>
