<svg xmlns="http://www.w3.org/2000/svg" xmlns:xlink="http://www.w3.org/1999/xlink" width="500" zoomAndPan="magnify" viewBox="0 0 375 374.999991" height="500" preserveAspectRatio="xMidYMid meet" version="1.0"><defs><clipPath id="61f90446c3"><path d="M 132 153 L 244 153 L 244 254.429688 L 132 254.429688 Z M 132 153 " clip-rule="nonzero"/></clipPath></defs><path fill="#feac5d" d="M 254.601562 167.691406 L 232.054688 151.101562 L 232.054688 131.316406 C 232.054688 128.214844 229.535156 125.707031 226.4375 125.707031 L 217.3125 125.707031 C 214.210938 125.707031 211.695312 128.21875 211.695312 131.316406 L 211.695312 136.125 L 194.503906 123.476562 C 190.773438 120.726562 184.664062 120.726562 180.933594 123.476562 L 120.832031 167.691406 C 117.101562 170.4375 116.300781 175.738281 119.046875 179.472656 L 120.707031 181.726562 C 123.449219 185.464844 128.75 186.273438 132.476562 183.527344 L 180.933594 147.863281 C 184.664062 145.117188 190.773438 145.117188 194.503906 147.863281 L 242.953125 183.527344 C 246.683594 186.273438 251.984375 185.457031 254.726562 181.726562 L 256.390625 179.472656 C 259.132812 175.738281 258.328125 170.4375 254.601562 167.691406 Z M 254.601562 167.691406 " fill-opacity="1" fill-rule="nonzero"/><g clip-path="url(#61f90446c3)"><path fill="#feac5d" d="M 236.625 186.628906 L 194.488281 155.488281 C 190.761719 152.734375 184.671875 152.734375 180.949219 155.488281 L 138.8125 186.628906 C 135.085938 189.382812 132.039062 193.410156 132.039062 195.597656 L 132.039062 240.742188 C 132.039062 248.074219 138.320312 254.019531 146.078125 254.019531 L 171.808594 254.019531 L 171.808594 214.082031 C 171.808594 210.996094 174.335938 208.472656 177.417969 208.472656 L 198.007812 208.472656 C 201.09375 208.472656 203.621094 210.996094 203.621094 214.082031 L 203.621094 254.019531 L 229.355469 254.019531 C 237.105469 254.019531 243.386719 248.074219 243.386719 240.742188 L 243.386719 195.597656 C 243.390625 193.410156 240.347656 189.382812 236.625 186.628906 Z M 236.625 186.628906 " fill-opacity="1" fill-rule="nonzero"/></g></svg>