<svg xmlns="http://www.w3.org/2000/svg" xmlns:xlink="http://www.w3.org/1999/xlink" width="500" zoomAndPan="magnify" viewBox="0 0 375 374.999991" height="500" preserveAspectRatio="xMidYMid meet" version="1.0"><defs><clipPath id="5fb9496589"><path d="M 115 204 L 260.667969 204 L 260.667969 255.757812 L 115 255.757812 Z M 115 204 " clip-rule="nonzero"/></clipPath></defs><g clip-path="url(#5fb9496589)"><path fill="#feac5d" d="M 260.535156 253.710938 C 259.242188 255.253906 257.554688 255.699219 255.589844 255.699219 C 210.449219 255.667969 165.308594 255.679688 120.160156 255.648438 C 115.859375 255.644531 114.460938 253.917969 115.210938 249.679688 C 117.269531 238.066406 123.574219 228.96875 132.609375 221.816406 C 147.65625 209.910156 165.128906 204.699219 184.132812 204.089844 C 197.433594 203.664062 210.410156 205.308594 222.8125 210.324219 C 241.085938 217.703125 255.449219 228.933594 260.53125 249.148438 C 260.535156 250.667969 260.535156 252.191406 260.535156 253.710938 Z M 260.535156 253.710938 " fill-opacity="1" fill-rule="nonzero"/></g><path fill="#feac5d" d="M 186.023438 120.550781 C 203.394531 119.242188 220.648438 135.585938 220.21875 154.800781 C 219.785156 173.898438 204.816406 189.15625 185.710938 189.125 C 166.742188 189.09375 151.679688 173.671875 151.476562 154.507812 C 151.273438 135.96875 167.734375 119.25 186.023438 120.550781 Z M 186.023438 120.550781 " fill-opacity="1" fill-rule="nonzero"/></svg>