<svg xmlns="http://www.w3.org/2000/svg" xmlns:xlink="http://www.w3.org/1999/xlink" width="500" zoomAndPan="magnify" viewBox="0 0 375 374.999991" height="500" preserveAspectRatio="xMidYMid meet" version="1.0"><defs><clipPath id="427a9a69bc"><path d="M 114.265625 121.589844 L 210 121.589844 L 210 253.589844 L 114.265625 253.589844 Z M 114.265625 121.589844 " clip-rule="nonzero"/></clipPath><clipPath id="0797f815c4"><path d="M 143 158 L 260.515625 158 L 260.515625 217 L 143 217 Z M 143 158 " clip-rule="nonzero"/></clipPath></defs><g clip-path="url(#427a9a69bc)"><path fill="#feac5d" d="M 187.496094 253.402344 L 136.238281 253.402344 C 135.519531 253.402344 134.800781 253.367188 134.085938 253.296875 C 133.367188 253.222656 132.660156 253.117188 131.953125 252.976562 C 131.246094 252.835938 130.550781 252.660156 129.863281 252.453125 C 129.175781 252.242188 128.5 252 127.832031 251.726562 C 127.167969 251.449219 126.519531 251.140625 125.886719 250.800781 C 125.25 250.464844 124.636719 250.09375 124.039062 249.695312 C 123.441406 249.292969 122.863281 248.867188 122.304688 248.410156 C 121.75 247.953125 121.21875 247.472656 120.710938 246.960938 C 120.199219 246.453125 119.71875 245.921875 119.261719 245.367188 C 118.804688 244.808594 118.378906 244.234375 117.976562 243.632812 C 117.578125 243.035156 117.207031 242.421875 116.871094 241.785156 C 116.53125 241.152344 116.222656 240.503906 115.945312 239.839844 C 115.671875 239.171875 115.429688 238.496094 115.21875 237.808594 C 115.011719 237.121094 114.835938 236.425781 114.695312 235.71875 C 114.554688 235.011719 114.449219 234.304688 114.375 233.585938 C 114.304688 232.871094 114.269531 232.152344 114.269531 231.433594 L 114.269531 143.558594 C 114.269531 142.839844 114.304688 142.121094 114.375 141.40625 C 114.449219 140.691406 114.554688 139.980469 114.695312 139.273438 C 114.835938 138.570312 115.011719 137.871094 115.21875 137.183594 C 115.429688 136.496094 115.671875 135.820312 115.945312 135.15625 C 116.222656 134.492188 116.53125 133.84375 116.871094 133.207031 C 117.207031 132.574219 117.578125 131.957031 117.976562 131.359375 C 118.378906 130.761719 118.804688 130.183594 119.261719 129.628906 C 119.71875 129.074219 120.199219 128.539062 120.710938 128.03125 C 121.21875 127.523438 121.75 127.039062 122.304688 126.585938 C 122.863281 126.128906 123.441406 125.699219 124.039062 125.300781 C 124.636719 124.898438 125.25 124.53125 125.886719 124.191406 C 126.519531 123.851562 127.167969 123.542969 127.832031 123.269531 C 128.5 122.992188 129.175781 122.75 129.863281 122.542969 C 130.550781 122.332031 131.246094 122.15625 131.953125 122.015625 C 132.660156 121.875 133.367188 121.769531 134.085938 121.699219 C 134.800781 121.628906 135.519531 121.589844 136.238281 121.589844 L 187.496094 121.589844 C 188.21875 121.589844 188.933594 121.628906 189.652344 121.699219 C 190.367188 121.769531 191.078125 121.875 191.78125 122.015625 C 192.488281 122.15625 193.183594 122.332031 193.871094 122.542969 C 194.5625 122.75 195.238281 122.992188 195.902344 123.269531 C 196.566406 123.542969 197.214844 123.851562 197.851562 124.191406 C 198.484375 124.53125 199.101562 124.898438 199.699219 125.300781 C 200.296875 125.699219 200.871094 126.128906 201.429688 126.585938 C 201.984375 127.039062 202.515625 127.523438 203.027344 128.03125 C 203.535156 128.539062 204.015625 129.074219 204.472656 129.628906 C 204.929688 130.183594 205.359375 130.761719 205.757812 131.359375 C 206.15625 131.957031 206.527344 132.574219 206.867188 133.207031 C 207.207031 133.84375 207.511719 134.492188 207.789062 135.15625 C 208.0625 135.820312 208.304688 136.496094 208.515625 137.183594 C 208.726562 137.871094 208.898438 138.570312 209.039062 139.273438 C 209.183594 139.980469 209.289062 140.691406 209.359375 141.40625 C 209.429688 142.121094 209.464844 142.839844 209.464844 143.558594 L 209.464844 158.207031 C 209.464844 158.6875 209.417969 159.164062 209.324219 159.632812 C 209.230469 160.105469 209.09375 160.5625 208.910156 161.007812 C 208.726562 161.453125 208.5 161.875 208.234375 162.273438 C 207.964844 162.671875 207.660156 163.042969 207.320312 163.382812 C 206.980469 163.722656 206.613281 164.027344 206.210938 164.292969 C 205.8125 164.5625 205.390625 164.785156 204.945312 164.972656 C 204.5 165.15625 204.042969 165.292969 203.574219 165.386719 C 203.101562 165.480469 202.625 165.527344 202.144531 165.527344 C 201.664062 165.527344 201.1875 165.480469 200.714844 165.386719 C 200.242188 165.292969 199.785156 165.15625 199.339844 164.972656 C 198.898438 164.785156 198.476562 164.5625 198.074219 164.292969 C 197.675781 164.027344 197.304688 163.722656 196.964844 163.382812 C 196.625 163.042969 196.320312 162.671875 196.054688 162.273438 C 195.789062 161.875 195.5625 161.453125 195.378906 161.007812 C 195.195312 160.5625 195.054688 160.105469 194.960938 159.632812 C 194.867188 159.164062 194.820312 158.6875 194.820312 158.207031 L 194.820312 143.558594 C 194.820312 143.078125 194.773438 142.601562 194.679688 142.128906 C 194.585938 141.660156 194.449219 141.203125 194.261719 140.757812 C 194.078125 140.3125 193.855469 139.890625 193.585938 139.492188 C 193.320312 139.089844 193.015625 138.722656 192.675781 138.382812 C 192.335938 138.042969 191.964844 137.738281 191.566406 137.46875 C 191.167969 137.203125 190.746094 136.976562 190.300781 136.792969 C 189.855469 136.609375 189.398438 136.472656 188.925781 136.378906 C 188.453125 136.285156 187.980469 136.238281 187.496094 136.238281 L 136.238281 136.238281 C 135.757812 136.238281 135.28125 136.285156 134.808594 136.378906 C 134.335938 136.472656 133.878906 136.609375 133.433594 136.792969 C 132.992188 136.976562 132.570312 137.203125 132.167969 137.46875 C 131.769531 137.738281 131.398438 138.042969 131.058594 138.382812 C 130.71875 138.722656 130.414062 139.089844 130.148438 139.492188 C 129.882812 139.890625 129.65625 140.3125 129.472656 140.757812 C 129.289062 141.203125 129.148438 141.660156 129.054688 142.128906 C 128.960938 142.601562 128.914062 143.078125 128.914062 143.558594 L 128.914062 231.433594 C 128.914062 231.914062 128.960938 232.390625 129.054688 232.863281 C 129.148438 233.335938 129.289062 233.792969 129.472656 234.238281 C 129.65625 234.679688 129.882812 235.101562 130.148438 235.503906 C 130.414062 235.902344 130.71875 236.273438 131.058594 236.613281 C 131.398438 236.953125 131.769531 237.257812 132.167969 237.523438 C 132.570312 237.789062 132.992188 238.015625 133.433594 238.199219 C 133.878906 238.382812 134.335938 238.523438 134.808594 238.617188 C 135.28125 238.710938 135.757812 238.757812 136.238281 238.757812 L 187.496094 238.757812 C 187.980469 238.757812 188.453125 238.710938 188.925781 238.617188 C 189.398438 238.523438 189.855469 238.382812 190.300781 238.199219 C 190.746094 238.015625 191.167969 237.789062 191.566406 237.523438 C 191.964844 237.257812 192.335938 236.953125 192.675781 236.613281 C 193.015625 236.273438 193.320312 235.902344 193.585938 235.503906 C 193.855469 235.101562 194.078125 234.679688 194.261719 234.238281 C 194.449219 233.792969 194.585938 233.335938 194.679688 232.863281 C 194.773438 232.390625 194.820312 231.914062 194.820312 231.433594 L 194.820312 216.789062 C 194.820312 216.308594 194.867188 215.832031 194.960938 215.359375 C 195.054688 214.886719 195.195312 214.429688 195.378906 213.984375 C 195.5625 213.542969 195.789062 213.121094 196.054688 212.71875 C 196.320312 212.320312 196.625 211.949219 196.964844 211.609375 C 197.304688 211.269531 197.675781 210.96875 198.074219 210.699219 C 198.476562 210.433594 198.898438 210.207031 199.339844 210.023438 C 199.785156 209.839844 200.242188 209.699219 200.714844 209.605469 C 201.1875 209.511719 201.664062 209.464844 202.144531 209.464844 C 202.625 209.464844 203.101562 209.511719 203.574219 209.605469 C 204.042969 209.699219 204.5 209.839844 204.945312 210.023438 C 205.390625 210.207031 205.8125 210.433594 206.210938 210.699219 C 206.613281 210.96875 206.980469 211.269531 207.320312 211.609375 C 207.660156 211.949219 207.964844 212.320312 208.234375 212.71875 C 208.5 213.121094 208.726562 213.542969 208.910156 213.984375 C 209.09375 214.429688 209.230469 214.886719 209.324219 215.359375 C 209.417969 215.832031 209.464844 216.308594 209.464844 216.789062 L 209.464844 231.433594 C 209.464844 232.152344 209.429688 232.871094 209.359375 233.585938 C 209.289062 234.304688 209.183594 235.011719 209.039062 235.71875 C 208.898438 236.425781 208.726562 237.121094 208.515625 237.808594 C 208.304688 238.496094 208.0625 239.171875 207.789062 239.839844 C 207.511719 240.503906 207.207031 241.152344 206.867188 241.785156 C 206.527344 242.421875 206.15625 243.035156 205.757812 243.632812 C 205.359375 244.230469 204.929688 244.808594 204.472656 245.367188 C 204.015625 245.921875 203.535156 246.453125 203.027344 246.960938 C 202.515625 247.472656 201.984375 247.953125 201.429688 248.410156 C 200.871094 248.867188 200.296875 249.292969 199.699219 249.695312 C 199.101562 250.09375 198.484375 250.464844 197.851562 250.800781 C 197.214844 251.140625 196.566406 251.449219 195.902344 251.726562 C 195.238281 252 194.5625 252.242188 193.871094 252.453125 C 193.183594 252.660156 192.488281 252.835938 191.78125 252.976562 C 191.078125 253.117188 190.367188 253.222656 189.652344 253.296875 C 188.933594 253.367188 188.21875 253.402344 187.496094 253.402344 Z M 187.496094 253.402344 " fill-opacity="1" fill-rule="nonzero"/></g><g clip-path="url(#0797f815c4)"><path fill="#feac5d" d="M 231.433594 216.789062 C 230.710938 216.789062 230.003906 216.683594 229.308594 216.472656 C 228.617188 216.261719 227.96875 215.957031 227.367188 215.554688 C 226.765625 215.152344 226.234375 214.671875 225.777344 214.109375 C 225.316406 213.550781 224.949219 212.9375 224.671875 212.269531 C 224.394531 211.597656 224.21875 210.902344 224.148438 210.183594 C 224.078125 209.464844 224.113281 208.746094 224.253906 208.039062 C 224.394531 207.328125 224.636719 206.652344 224.976562 206.015625 C 225.320312 205.375 225.746094 204.800781 226.257812 204.289062 L 235.726562 194.820312 L 150.882812 194.820312 C 150.402344 194.820312 149.925781 194.773438 149.453125 194.679688 C 148.984375 194.585938 148.523438 194.445312 148.082031 194.261719 C 147.636719 194.078125 147.214844 193.851562 146.816406 193.585938 C 146.414062 193.320312 146.046875 193.015625 145.707031 192.675781 C 145.367188 192.335938 145.0625 191.964844 144.792969 191.566406 C 144.527344 191.164062 144.300781 190.742188 144.117188 190.300781 C 143.933594 189.855469 143.796875 189.398438 143.699219 188.925781 C 143.605469 188.453125 143.558594 187.976562 143.558594 187.496094 C 143.558594 187.015625 143.605469 186.539062 143.699219 186.066406 C 143.796875 185.597656 143.933594 185.140625 144.117188 184.695312 C 144.300781 184.25 144.527344 183.828125 144.792969 183.429688 C 145.0625 183.027344 145.367188 182.660156 145.707031 182.320312 C 146.046875 181.980469 146.414062 181.675781 146.816406 181.40625 C 147.214844 181.140625 147.636719 180.914062 148.082031 180.730469 C 148.523438 180.546875 148.984375 180.410156 149.453125 180.316406 C 149.925781 180.222656 150.402344 180.175781 150.882812 180.175781 L 235.726562 180.175781 L 226.257812 170.707031 C 225.929688 170.363281 225.632812 169.992188 225.375 169.59375 C 225.117188 169.195312 224.898438 168.773438 224.722656 168.332031 C 224.546875 167.890625 224.414062 167.4375 224.328125 166.96875 C 224.242188 166.5 224.199219 166.03125 224.203125 165.554688 C 224.207031 165.078125 224.257812 164.609375 224.351562 164.144531 C 224.449219 163.675781 224.589844 163.226562 224.773438 162.785156 C 224.957031 162.347656 225.179688 161.929688 225.445312 161.535156 C 225.710938 161.140625 226.011719 160.777344 226.347656 160.441406 C 226.683594 160.105469 227.050781 159.804688 227.445312 159.539062 C 227.839844 159.273438 228.253906 159.046875 228.695312 158.863281 C 229.132812 158.679688 229.585938 158.542969 230.050781 158.445312 C 230.515625 158.351562 230.988281 158.300781 231.460938 158.296875 C 231.9375 158.292969 232.410156 158.332031 232.875 158.421875 C 233.34375 158.507812 233.796875 158.640625 234.238281 158.816406 C 234.679688 158.992188 235.101562 159.210938 235.5 159.46875 C 235.898438 159.726562 236.269531 160.019531 236.613281 160.351562 L 258.582031 182.320312 C 259.210938 182.941406 259.707031 183.652344 260.078125 184.457031 C 260.445312 185.257812 260.664062 186.097656 260.726562 186.980469 C 260.761719 187.46875 260.75 187.957031 260.683594 188.445312 C 260.496094 189.886719 259.929688 191.15625 258.984375 192.261719 C 258.84375 192.417969 258.707031 192.566406 258.558594 192.714844 L 236.632812 214.640625 C 235.945312 215.332031 235.148438 215.863281 234.25 216.234375 C 233.347656 216.605469 232.410156 216.792969 231.433594 216.789062 Z M 231.433594 216.789062 " fill-opacity="1" fill-rule="nonzero"/></g></svg>