<svg xmlns="http://www.w3.org/2000/svg" xmlns:xlink="http://www.w3.org/1999/xlink" width="500" zoomAndPan="magnify" viewBox="0 0 375 374.999991" height="500" preserveAspectRatio="xMidYMid meet" version="1.0"><defs><clipPath id="7d009ac982"><path d="M 114.363281 62.210938 L 260.613281 62.210938 L 260.613281 300 L 114.363281 300 Z M 114.363281 62.210938 " clip-rule="nonzero"/></clipPath><clipPath id="a01bc82470"><path d="M 114.363281 143 L 260.613281 143 L 260.613281 151 L 114.363281 151 Z M 114.363281 143 " clip-rule="nonzero"/></clipPath><clipPath id="a82703e41d"><path d="M 133 292 L 176 292 L 176 312.710938 L 133 312.710938 Z M 133 292 " clip-rule="nonzero"/></clipPath><clipPath id="e442db81f6"><path d="M 199 292 L 242 292 L 242 312.710938 L 199 312.710938 Z M 199 292 " clip-rule="nonzero"/></clipPath></defs><g clip-path="url(#7d009ac982)"><path fill="#feac5d" d="M 244.925781 299.90625 L 130.027344 299.90625 C 121.433594 299.90625 114.441406 292.910156 114.441406 284.320312 L 114.441406 77.800781 C 114.441406 69.207031 121.429688 62.214844 130.027344 62.214844 L 244.925781 62.214844 C 253.515625 62.214844 260.507812 69.207031 260.507812 77.800781 L 260.507812 284.320312 C 260.507812 292.914062 253.515625 299.902344 244.925781 299.902344 Z M 130.027344 70.046875 C 125.75 70.046875 122.273438 73.523438 122.273438 77.800781 L 122.273438 284.320312 C 122.273438 288.597656 125.75 292.074219 130.027344 292.074219 L 244.925781 292.074219 C 249.199219 292.074219 252.679688 288.597656 252.679688 284.320312 L 252.679688 77.800781 C 252.679688 73.523438 249.199219 70.046875 244.925781 70.046875 Z M 130.027344 70.046875 " fill-opacity="1" fill-rule="evenodd"/></g><path fill="#feac5d" d="M 143.285156 135.480469 L 138.800781 135.480469 C 134.652344 135.480469 131.277344 132.105469 131.277344 127.957031 L 131.277344 97 C 131.277344 92.847656 134.652344 89.472656 138.800781 89.472656 L 143.285156 89.472656 C 147.4375 89.472656 150.808594 92.847656 150.808594 97 L 150.808594 127.957031 C 150.8125 132.105469 147.4375 135.480469 143.285156 135.480469 Z M 139.109375 127.648438 L 142.980469 127.648438 L 142.980469 97.304688 L 139.109375 97.304688 Z M 139.109375 127.648438 " fill-opacity="1" fill-rule="evenodd"/><path fill="#feac5d" d="M 143.707031 213.597656 L 138.519531 213.597656 C 134.371094 213.597656 130.996094 210.222656 130.996094 206.078125 L 130.996094 166 C 130.996094 161.851562 134.371094 158.476562 138.519531 158.476562 L 143.707031 158.476562 C 147.855469 158.476562 151.230469 161.851562 151.230469 166 L 151.230469 206.074219 C 151.234375 210.222656 147.855469 213.597656 143.707031 213.597656 Z M 138.824219 205.769531 L 143.402344 205.769531 L 143.402344 166.304688 L 138.824219 166.304688 Z M 138.824219 205.769531 " fill-opacity="1" fill-rule="evenodd"/><g clip-path="url(#a01bc82470)"><path fill="#feac5d" d="M 256.589844 150.894531 L 118.355469 150.894531 C 116.191406 150.894531 114.441406 149.140625 114.441406 146.976562 C 114.441406 144.816406 116.191406 143.0625 118.355469 143.0625 L 256.589844 143.0625 C 258.753906 143.0625 260.507812 144.816406 260.507812 146.976562 C 260.507812 149.140625 258.753906 150.894531 256.589844 150.894531 Z M 256.589844 150.894531 " fill-opacity="1" fill-rule="evenodd"/></g><g clip-path="url(#a82703e41d)"><path fill="#feac5d" d="M 165.621094 312.777344 L 142.835938 312.777344 C 141.300781 312.777344 139.902344 311.878906 139.269531 310.480469 L 133.4375 297.609375 C 132.886719 296.394531 132.992188 294.988281 133.710938 293.871094 C 134.433594 292.75 135.671875 292.074219 137.003906 292.074219 L 171.457031 292.074219 C 172.785156 292.074219 174.027344 292.75 174.746094 293.871094 C 175.46875 294.988281 175.570312 296.394531 175.023438 297.609375 L 169.1875 310.480469 C 168.550781 311.878906 167.160156 312.777344 165.621094 312.777344 Z M 145.359375 304.949219 L 163.097656 304.949219 L 165.382812 299.90625 L 143.074219 299.90625 Z M 145.359375 304.949219 " fill-opacity="1" fill-rule="evenodd"/></g><g clip-path="url(#e442db81f6)"><path fill="#feac5d" d="M 232.113281 312.777344 L 209.328125 312.777344 C 207.789062 312.777344 206.394531 311.878906 205.757812 310.480469 L 199.921875 297.609375 C 199.375 296.394531 199.476562 294.988281 200.199219 293.871094 C 200.921875 292.75 202.160156 292.074219 203.488281 292.074219 L 237.941406 292.074219 C 239.273438 292.074219 240.515625 292.75 241.234375 293.871094 C 241.957031 294.988281 242.058594 296.394531 241.507812 297.609375 L 235.675781 310.480469 C 235.042969 311.878906 233.648438 312.777344 232.113281 312.777344 Z M 211.847656 304.949219 L 229.585938 304.949219 L 231.871094 299.90625 L 209.566406 299.90625 Z M 211.847656 304.949219 " fill-opacity="1" fill-rule="evenodd"/></g></svg>