<svg xmlns="http://www.w3.org/2000/svg" width="500" zoomAndPan="magnify" viewBox="0 0 375 374.999991" height="500" preserveAspectRatio="xMidYMid meet" version="1.0"><defs><g/><clipPath id="ca520f03d3"><path d="M 70.675781 70.675781 L 304.324219 70.675781 L 304.324219 304.324219 L 70.675781 304.324219 Z M 70.675781 70.675781 " clip-rule="nonzero"/></clipPath><clipPath id="a70b38705b"><path d="M 187.5 70.675781 C 122.980469 70.675781 70.675781 122.980469 70.675781 187.5 C 70.675781 252.019531 122.980469 304.324219 187.5 304.324219 C 252.019531 304.324219 304.324219 252.019531 304.324219 187.5 C 304.324219 122.980469 252.019531 70.675781 187.5 70.675781 Z M 187.5 70.675781 " clip-rule="nonzero"/></clipPath><clipPath id="9ed92bc7eb"><path d="M 123.5625 110.511719 L 251.0625 110.511719 L 251.0625 226 L 123.5625 226 Z M 123.5625 110.511719 " clip-rule="nonzero"/></clipPath></defs><g clip-path="url(#ca520f03d3)"><g clip-path="url(#a70b38705b)"><path fill="#fcfaf8" d="M 70.675781 70.675781 L 304.324219 70.675781 L 304.324219 304.324219 L 70.675781 304.324219 Z M 70.675781 70.675781 " fill-opacity="1" fill-rule="nonzero"/></g></g><g clip-path="url(#9ed92bc7eb)"><path fill="#feac5d" d="M 187.484375 110.511719 L 123.648438 161.589844 L 126.761719 165.476562 L 132.667969 160.742188 L 132.667969 188.449219 C 132.667969 189.675781 132.726562 190.894531 132.847656 192.113281 C 132.96875 193.332031 133.148438 194.539062 133.386719 195.742188 C 133.625 196.941406 133.921875 198.128906 134.277344 199.300781 C 134.632812 200.46875 135.042969 201.621094 135.511719 202.753906 C 135.980469 203.882812 136.503906 204.988281 137.082031 206.066406 C 137.65625 207.148438 138.285156 208.195312 138.964844 209.214844 C 139.644531 210.230469 140.375 211.214844 141.152344 212.160156 C 141.925781 213.105469 142.75 214.011719 143.613281 214.878906 C 144.480469 215.742188 145.386719 216.5625 146.332031 217.339844 C 147.277344 218.117188 148.261719 218.84375 149.277344 219.527344 C 150.296875 220.207031 151.34375 220.835938 152.421875 221.410156 C 153.503906 221.988281 154.609375 222.511719 155.738281 222.980469 C 156.871094 223.449219 158.019531 223.859375 159.191406 224.214844 C 160.363281 224.570312 161.550781 224.867188 162.75 225.105469 C 163.949219 225.34375 165.160156 225.523438 166.378906 225.644531 C 167.597656 225.765625 168.816406 225.824219 170.042969 225.824219 L 173.480469 225.824219 L 167.078125 203.398438 L 165.183594 203.398438 C 164.730469 203.402344 164.285156 203.363281 163.839844 203.285156 C 163.398438 203.203125 162.964844 203.085938 162.542969 202.929688 C 162.121094 202.769531 161.714844 202.578125 161.328125 202.347656 C 160.941406 202.117188 160.578125 201.851562 160.238281 201.554688 C 159.898438 201.257812 159.585938 200.933594 159.308594 200.582031 C 159.027344 200.230469 158.777344 199.855469 158.566406 199.457031 C 158.351562 199.0625 158.175781 198.648438 158.039062 198.21875 C 157.902344 197.789062 157.800781 197.351562 157.742188 196.90625 C 157.683594 196.457031 157.664062 196.007812 157.6875 195.558594 C 157.710938 195.109375 157.773438 194.664062 157.875 194.226562 C 157.976562 193.785156 158.117188 193.359375 158.296875 192.945312 C 158.476562 192.53125 158.691406 192.140625 158.941406 191.765625 C 159.195312 191.390625 159.476562 191.042969 159.789062 190.71875 C 160.105469 190.394531 160.445312 190.101562 160.8125 189.839844 C 161.179688 189.578125 161.566406 189.351562 161.972656 189.160156 C 162.382812 188.96875 162.804688 188.816406 163.238281 188.699219 C 163.921875 188.515625 164.613281 188.429688 165.320312 188.441406 C 166.027344 188.453125 166.714844 188.5625 167.390625 188.769531 C 168.066406 188.976562 168.699219 189.273438 169.289062 189.660156 C 169.878906 190.046875 170.402344 190.507812 170.863281 191.042969 L 174.625 195.453125 L 175.222656 189.671875 C 175.222656 188.851562 175.304688 188.042969 175.464844 187.242188 C 175.625 186.4375 175.859375 185.660156 176.171875 184.902344 C 176.484375 184.148438 176.871094 183.429688 177.324219 182.75 C 177.777344 182.070312 178.292969 181.441406 178.875 180.863281 C 179.453125 180.285156 180.082031 179.765625 180.761719 179.3125 C 181.441406 178.859375 182.160156 178.472656 182.914062 178.160156 C 183.671875 177.847656 184.449219 177.613281 185.25 177.453125 C 186.054688 177.292969 186.863281 177.210938 187.683594 177.210938 C 188.5 177.210938 189.3125 177.292969 190.113281 177.453125 C 190.914062 177.613281 191.695312 177.847656 192.449219 178.160156 C 193.207031 178.472656 193.921875 178.859375 194.605469 179.3125 C 195.285156 179.765625 195.914062 180.285156 196.492188 180.863281 C 197.070312 181.441406 197.585938 182.070312 198.039062 182.75 C 198.496094 183.429688 198.878906 184.148438 199.191406 184.902344 C 199.503906 185.660156 199.742188 186.4375 199.902344 187.242188 C 200.0625 188.042969 200.140625 188.851562 200.140625 189.671875 L 200.738281 195.453125 L 204.5 191.042969 C 204.960938 190.507812 205.484375 190.046875 206.078125 189.660156 C 206.667969 189.273438 207.300781 188.976562 207.972656 188.769531 C 208.648438 188.5625 209.339844 188.453125 210.046875 188.441406 C 210.75 188.429688 211.445312 188.515625 212.125 188.699219 C 212.777344 188.875 213.394531 189.132812 213.976562 189.476562 C 214.554688 189.820312 215.082031 190.230469 215.550781 190.71875 C 216.019531 191.203125 216.417969 191.738281 216.742188 192.332031 C 217.0625 192.925781 217.304688 193.546875 217.457031 194.207031 C 217.699219 195.339844 217.679688 196.472656 217.394531 197.597656 C 217.109375 198.722656 216.589844 199.726562 215.835938 200.609375 C 215.128906 201.492188 214.261719 202.179688 213.238281 202.667969 C 212.21875 203.15625 211.140625 203.402344 210.007812 203.398438 L 208.136719 203.398438 L 201.734375 225.824219 L 205.023438 225.824219 C 206.25 225.824219 207.46875 225.765625 208.6875 225.644531 C 209.90625 225.523438 211.113281 225.34375 212.316406 225.105469 C 213.515625 224.867188 214.703125 224.570312 215.875 224.214844 C 217.042969 223.859375 218.195312 223.449219 219.328125 222.980469 C 220.457031 222.511719 221.5625 221.988281 222.640625 221.410156 C 223.722656 220.835938 224.769531 220.207031 225.789062 219.527344 C 226.804688 218.84375 227.789062 218.117188 228.734375 217.339844 C 229.679688 216.5625 230.585938 215.742188 231.453125 214.878906 C 232.316406 214.011719 233.136719 213.105469 233.914062 212.160156 C 234.691406 211.214844 235.417969 210.230469 236.101562 209.214844 C 236.78125 208.195312 237.410156 207.148438 237.984375 206.066406 C 238.5625 204.988281 239.085938 203.882812 239.554688 202.753906 C 240.023438 201.621094 240.433594 200.46875 240.789062 199.300781 C 241.144531 198.128906 241.441406 196.941406 241.679688 195.742188 C 241.917969 194.539062 242.097656 193.332031 242.21875 192.113281 C 242.339844 190.894531 242.398438 189.675781 242.398438 188.449219 L 242.398438 160.742188 L 248.230469 165.476562 L 251.34375 161.589844 Z M 237.316406 188.449219 C 237.316406 189.4375 237.269531 190.425781 237.179688 191.410156 C 237.089844 192.394531 236.957031 193.375 236.777344 194.347656 C 236.597656 195.320312 236.371094 196.28125 236.105469 197.234375 C 235.835938 198.1875 235.523438 199.125 235.171875 200.046875 C 234.816406 200.972656 234.421875 201.878906 233.984375 202.765625 C 233.546875 203.652344 233.070312 204.519531 232.554688 205.363281 C 232.039062 206.207031 231.484375 207.023438 230.894531 207.816406 C 230.304688 208.609375 229.675781 209.375 229.015625 210.109375 C 228.355469 210.84375 227.660156 211.550781 226.9375 212.222656 C 226.210938 212.894531 225.457031 213.53125 224.671875 214.132812 C 223.886719 214.738281 223.078125 215.304688 222.242188 215.832031 C 221.40625 216.359375 220.546875 216.851562 219.667969 217.300781 C 218.785156 217.75 217.886719 218.160156 216.96875 218.527344 C 216.050781 218.894531 215.117188 219.21875 214.167969 219.503906 C 213.222656 219.785156 212.261719 220.023438 211.292969 220.21875 C 210.324219 220.410156 209.347656 220.5625 208.363281 220.667969 L 211.925781 208.207031 C 212.628906 208.101562 213.316406 207.933594 213.992188 207.707031 C 214.667969 207.480469 215.316406 207.199219 215.941406 206.859375 C 216.570312 206.523438 217.160156 206.136719 217.71875 205.695312 C 218.28125 205.257812 218.796875 204.773438 219.273438 204.246094 C 219.75 203.71875 220.179688 203.152344 220.558594 202.550781 C 220.941406 201.949219 221.265625 201.320312 221.539062 200.664062 C 221.8125 200.007812 222.023438 199.332031 222.179688 198.636719 C 222.339844 197.945312 222.433594 197.242188 222.472656 196.53125 C 222.507812 195.820312 222.484375 195.113281 222.398438 194.40625 C 222.3125 193.699219 222.167969 193.007812 221.964844 192.324219 C 221.761719 191.644531 221.5 190.984375 221.183594 190.347656 C 220.867188 189.710938 220.5 189.105469 220.078125 188.53125 C 219.65625 187.957031 219.191406 187.425781 218.679688 186.929688 C 218.167969 186.4375 217.617188 185.992188 217.03125 185.589844 C 216.441406 185.191406 215.824219 184.84375 215.175781 184.550781 C 214.527344 184.257812 213.859375 184.019531 213.171875 183.839844 C 211.621094 183.445312 210.054688 183.347656 208.464844 183.546875 C 206.878906 183.742188 205.382812 184.222656 203.976562 184.988281 C 203.683594 184.132812 203.324219 183.308594 202.902344 182.507812 C 202.480469 181.710938 202 180.949219 201.460938 180.226562 C 200.917969 179.503906 200.324219 178.828125 199.679688 178.195312 C 199.035156 177.566406 198.34375 176.988281 197.609375 176.464844 C 196.875 175.941406 196.101562 175.476562 195.296875 175.070312 C 194.488281 174.667969 193.65625 174.328125 192.792969 174.054688 C 191.933594 173.777344 191.058594 173.570312 190.167969 173.433594 C 189.273438 173.292969 188.378906 173.226562 187.472656 173.226562 C 186.570312 173.226562 185.675781 173.296875 184.78125 173.4375 C 183.890625 173.578125 183.015625 173.785156 182.15625 174.0625 C 181.296875 174.335938 180.460938 174.679688 179.65625 175.082031 C 178.847656 175.488281 178.078125 175.953125 177.34375 176.480469 C 176.609375 177.003906 175.921875 177.582031 175.277344 178.214844 C 174.632812 178.847656 174.039062 179.523438 173.5 180.25 C 172.960938 180.972656 172.480469 181.734375 172.058594 182.53125 C 171.636719 183.332031 171.28125 184.15625 170.988281 185.011719 C 169.582031 184.25 168.085938 183.769531 166.5 183.570312 C 164.914062 183.371094 163.34375 183.472656 161.792969 183.867188 C 160.695312 184.15625 159.652344 184.589844 158.671875 185.164062 C 157.6875 185.742188 156.800781 186.441406 156.011719 187.257812 C 155.21875 188.078125 154.554688 188.988281 154.011719 189.992188 C 153.472656 190.992188 153.074219 192.046875 152.824219 193.160156 C 152.644531 193.988281 152.550781 194.824219 152.539062 195.671875 C 152.53125 196.519531 152.609375 197.359375 152.769531 198.191406 C 152.933594 199.023438 153.175781 199.832031 153.503906 200.613281 C 153.832031 201.394531 154.234375 202.132812 154.710938 202.835938 C 155.191406 203.535156 155.734375 204.179688 156.34375 204.765625 C 156.953125 205.355469 157.617188 205.875 158.332031 206.332031 C 159.046875 206.785156 159.804688 207.160156 160.59375 207.460938 C 161.386719 207.757812 162.203125 207.976562 163.039062 208.109375 L 166.601562 220.566406 C 165.621094 220.460938 164.648438 220.3125 163.679688 220.117188 C 162.710938 219.925781 161.753906 219.6875 160.808594 219.40625 C 159.863281 219.125 158.929688 218.800781 158.015625 218.433594 C 157.097656 218.066406 156.199219 217.660156 155.320312 217.210938 C 154.441406 216.761719 153.585938 216.277344 152.75 215.75 C 151.914062 215.222656 151.105469 214.65625 150.324219 214.058594 C 149.539062 213.457031 148.785156 212.820312 148.0625 212.152344 C 147.335938 211.480469 146.644531 210.78125 145.984375 210.046875 C 145.320312 209.3125 144.695312 208.550781 144.105469 207.761719 C 143.511719 206.972656 142.960938 206.15625 142.441406 205.316406 C 141.925781 204.472656 141.449219 203.609375 141.011719 202.726562 C 140.574219 201.84375 140.175781 200.9375 139.820312 200.019531 C 139.464844 199.097656 139.152344 198.164062 138.882812 197.210938 C 138.613281 196.261719 138.386719 195.304688 138.207031 194.332031 C 138.023438 193.363281 137.886719 192.386719 137.792969 191.40625 C 137.699219 190.421875 137.652344 189.4375 137.652344 188.449219 L 137.652344 156.757812 L 187.484375 116.890625 L 237.316406 156.757812 Z M 237.316406 188.449219 " fill-opacity="1" fill-rule="nonzero"/></g><path fill="#feac5d" d="M 180.007812 213.367188 L 184.992188 213.367188 L 184.992188 225.824219 L 180.007812 225.824219 Z M 180.007812 213.367188 " fill-opacity="1" fill-rule="nonzero"/><path fill="#feac5d" d="M 189.976562 213.367188 L 194.957031 213.367188 L 194.957031 225.824219 L 189.976562 225.824219 Z M 189.976562 213.367188 " fill-opacity="1" fill-rule="nonzero"/><path fill="#feac5d" d="M 177.515625 146.09375 L 184.992188 146.09375 L 184.992188 153.566406 L 177.515625 153.566406 Z M 177.515625 146.09375 " fill-opacity="1" fill-rule="nonzero"/><path fill="#feac5d" d="M 189.976562 146.09375 L 197.449219 146.09375 L 197.449219 153.566406 L 189.976562 153.566406 Z M 189.976562 146.09375 " fill-opacity="1" fill-rule="nonzero"/><path fill="#feac5d" d="M 177.515625 158.550781 L 184.992188 158.550781 L 184.992188 166.023438 L 177.515625 166.023438 Z M 177.515625 158.550781 " fill-opacity="1" fill-rule="nonzero"/><path fill="#feac5d" d="M 189.976562 158.550781 L 197.449219 158.550781 L 197.449219 166.023438 L 189.976562 166.023438 Z M 189.976562 158.550781 " fill-opacity="1" fill-rule="nonzero"/><g fill="#1d828e" fill-opacity="1"><g transform="translate(105.384855, 251.183612)"><g><path d="M 11.6875 -7.703125 C 11.289062 -7.210938 10.710938 -6.820312 9.953125 -6.53125 C 9.203125 -6.25 8.316406 -6.109375 7.296875 -6.109375 L 4.75 -6.109375 L 4.75 0 L 1.65625 0 L 1.65625 -15.359375 L 7.296875 -15.359375 C 9.078125 -15.359375 10.445312 -14.910156 11.40625 -14.015625 C 12.363281 -13.128906 12.84375 -12.085938 12.84375 -10.890625 C 12.84375 -9.691406 12.457031 -8.628906 11.6875 -7.703125 Z M 4.75 -8.484375 L 7.296875 -8.484375 C 8.078125 -8.484375 8.671875 -8.6875 9.078125 -9.09375 C 9.492188 -9.5 9.703125 -10.046875 9.703125 -10.734375 C 9.703125 -11.421875 9.492188 -11.96875 9.078125 -12.375 C 8.671875 -12.78125 8.078125 -12.984375 7.296875 -12.984375 L 4.75 -12.984375 Z M 4.75 -8.484375 "/></g></g></g><g fill="#1d828e" fill-opacity="1"><g transform="translate(121.112451, 251.183612)"><g><path d="M 12.03125 -4.0625 C 12.894531 -4.976562 13.328125 -6.195312 13.328125 -7.71875 C 13.328125 -9.25 12.894531 -10.46875 12.03125 -11.375 C 11.164062 -12.28125 10.035156 -12.734375 8.640625 -12.734375 C 7.253906 -12.734375 6.125 -12.273438 5.25 -11.359375 C 4.375 -10.441406 3.9375 -9.222656 3.9375 -7.703125 C 3.9375 -6.191406 4.375 -4.976562 5.25 -4.0625 C 6.125 -3.144531 7.253906 -2.6875 8.640625 -2.6875 C 10.035156 -2.6875 11.164062 -3.144531 12.03125 -4.0625 Z M 8.640625 0.15625 C 6.429688 0.15625 4.570312 -0.582031 3.0625 -2.0625 C 1.550781 -3.550781 0.796875 -5.429688 0.796875 -7.703125 C 0.796875 -9.984375 1.550781 -11.863281 3.0625 -13.34375 C 4.582031 -14.832031 6.445312 -15.578125 8.65625 -15.578125 C 10.863281 -15.578125 12.722656 -14.832031 14.234375 -13.34375 C 15.742188 -11.863281 16.5 -9.984375 16.5 -7.703125 C 16.5 -5.429688 15.742188 -3.550781 14.234375 -2.0625 C 12.722656 -0.582031 10.859375 0.15625 8.640625 0.15625 Z M 8.640625 0.15625 "/></g></g></g><g fill="#1d828e" fill-opacity="1"><g transform="translate(140.601376, 251.183612)"><g><path d="M 3.0625 -2.09375 C 1.550781 -3.570312 0.796875 -5.445312 0.796875 -7.71875 C 0.796875 -9.988281 1.550781 -11.863281 3.0625 -13.34375 C 4.582031 -14.832031 6.441406 -15.578125 8.640625 -15.578125 C 10.316406 -15.578125 11.800781 -15.148438 13.09375 -14.296875 C 14.394531 -13.453125 15.328125 -12.257812 15.890625 -10.71875 L 12.171875 -10.71875 C 11.472656 -12.0625 10.296875 -12.734375 8.640625 -12.734375 C 7.253906 -12.734375 6.125 -12.273438 5.25 -11.359375 C 4.375 -10.441406 3.9375 -9.222656 3.9375 -7.703125 C 3.9375 -6.191406 4.375 -4.976562 5.25 -4.0625 C 6.125 -3.144531 7.253906 -2.6875 8.640625 -2.6875 C 10.285156 -2.6875 11.460938 -3.359375 12.171875 -4.703125 L 15.890625 -4.703125 C 15.328125 -3.160156 14.394531 -1.96875 13.09375 -1.125 C 11.800781 -0.289062 10.316406 0.125 8.640625 0.125 C 6.429688 0.125 4.570312 -0.613281 3.0625 -2.09375 Z M 3.0625 -2.09375 "/></g></g></g><g fill="#1d828e" fill-opacity="1"><g transform="translate(159.716364, 251.183612)"><g><path d="M 4.75 0 L 1.65625 0 L 1.65625 -15.359375 L 4.75 -15.359375 L 4.75 -8.484375 L 10.296875 -15.359375 L 14.34375 -15.359375 L 7.671875 -7.65625 L 14.34375 0 L 10.3125 0 L 4.75 -6.8125 Z M 4.75 0 "/></g></g></g><g fill="#1d828e" fill-opacity="1"><g transform="translate(176.741732, 251.183612)"><g><path d="M 10.515625 -15.40625 L 10.515625 -13.03125 L 4.75 -13.03125 L 4.75 -9 L 9.859375 -9 L 9.859375 -6.625 L 4.75 -6.625 L 4.75 -2.375 L 10.515625 -2.375 L 10.515625 0 L 1.65625 0 L 1.65625 -15.40625 Z M 10.515625 -15.40625 "/></g></g></g><g fill="#1d828e" fill-opacity="1"><g transform="translate(190.973598, 251.183612)"><g><path d="M 0.75 -12.984375 L 0.75 -15.359375 L 12.125 -15.359375 L 12.125 -12.984375 L 7.96875 -12.984375 L 7.96875 0 L 4.890625 0 L 4.890625 -12.984375 Z M 0.75 -12.984375 "/></g></g></g><g fill="#1d828e" fill-opacity="1"><g transform="translate(206.019305, 251.183612)"><g><path d="M 3.0625 -2.09375 C 1.550781 -3.570312 0.796875 -5.445312 0.796875 -7.71875 C 0.796875 -9.988281 1.550781 -11.863281 3.0625 -13.34375 C 4.582031 -14.832031 6.441406 -15.578125 8.640625 -15.578125 C 10.316406 -15.578125 11.800781 -15.148438 13.09375 -14.296875 C 14.394531 -13.453125 15.328125 -12.257812 15.890625 -10.71875 L 12.171875 -10.71875 C 11.472656 -12.0625 10.296875 -12.734375 8.640625 -12.734375 C 7.253906 -12.734375 6.125 -12.273438 5.25 -11.359375 C 4.375 -10.441406 3.9375 -9.222656 3.9375 -7.703125 C 3.9375 -6.191406 4.375 -4.976562 5.25 -4.0625 C 6.125 -3.144531 7.253906 -2.6875 8.640625 -2.6875 C 10.285156 -2.6875 11.460938 -3.359375 12.171875 -4.703125 L 15.890625 -4.703125 C 15.328125 -3.160156 14.394531 -1.96875 13.09375 -1.125 C 11.800781 -0.289062 10.316406 0.125 8.640625 0.125 C 6.429688 0.125 4.570312 -0.613281 3.0625 -2.09375 Z M 3.0625 -2.09375 "/></g></g></g><g fill="#1d828e" fill-opacity="1"><g transform="translate(225.134291, 251.183612)"><g><path d="M 11.359375 -15.359375 L 14.453125 -15.359375 L 14.453125 0 L 11.359375 0 L 11.359375 -6.578125 L 4.75 -6.578125 L 4.75 0 L 1.65625 0 L 1.65625 -15.359375 L 4.75 -15.359375 L 4.75 -8.953125 L 11.359375 -8.953125 Z M 11.359375 -15.359375 "/></g></g></g><g fill="#1d828e" fill-opacity="1"><g transform="translate(243.435418, 251.183612)"><g><path d="M 10.515625 -15.40625 L 10.515625 -13.03125 L 4.75 -13.03125 L 4.75 -9 L 9.859375 -9 L 9.859375 -6.625 L 4.75 -6.625 L 4.75 -2.375 L 10.515625 -2.375 L 10.515625 0 L 1.65625 0 L 1.65625 -15.40625 Z M 10.515625 -15.40625 "/></g></g></g><g fill="#1d828e" fill-opacity="1"><g transform="translate(257.667278, 251.183612)"><g><path d="M 1.65625 0 L 1.65625 -15.359375 L 11.15625 -15.359375 L 11.15625 -12.984375 L 4.75 -12.984375 L 4.75 -8.953125 L 9.640625 -8.953125 L 9.640625 -6.578125 L 4.75 -6.578125 L 4.75 0 Z M 1.65625 0 "/></g></g></g></svg>