<svg xmlns="http://www.w3.org/2000/svg" xmlns:xlink="http://www.w3.org/1999/xlink" width="500" zoomAndPan="magnify" viewBox="0 0 375 374.999991" height="500" preserveAspectRatio="xMidYMid meet" version="1.0"><defs><clipPath id="638e0ca0af"><path d="M 114.390625 114.390625 L 260.640625 114.390625 L 260.640625 260.640625 L 114.390625 260.640625 Z M 114.390625 114.390625 " clip-rule="nonzero"/></clipPath></defs><g clip-path="url(#638e0ca0af)"><path fill="#feac5d" d="M 187.496094 114.390625 C 147.1875 114.390625 114.390625 147.1875 114.390625 187.496094 C 114.390625 227.808594 147.1875 260.605469 187.496094 260.605469 C 227.808594 260.605469 260.605469 227.808594 260.605469 187.496094 C 260.605469 147.1875 227.808594 114.390625 187.496094 114.390625 Z M 146.4375 236.484375 C 147.121094 214.402344 165.25 196.636719 187.496094 196.636719 C 209.746094 196.636719 227.875 214.402344 228.554688 236.484375 C 217.433594 245.820312 203.121094 251.464844 187.496094 251.464844 C 171.875 251.464844 157.558594 245.820312 146.4375 236.484375 Z M 164.652344 164.652344 C 164.652344 152.054688 174.898438 141.804688 187.496094 141.804688 C 200.09375 141.804688 210.34375 152.054688 210.34375 164.652344 C 210.34375 177.25 200.09375 187.496094 187.496094 187.496094 C 174.898438 187.496094 164.652344 177.25 164.652344 164.652344 Z M 236.816406 228.1875 C 233.507812 211.105469 221.527344 197.125 205.660156 190.941406 C 214 185.167969 219.480469 175.539062 219.480469 164.652344 C 219.480469 147.019531 205.128906 132.667969 187.496094 132.667969 C 169.863281 132.667969 155.511719 147.019531 155.511719 164.652344 C 155.511719 175.539062 160.996094 185.167969 169.335938 190.945312 C 153.464844 197.128906 141.484375 211.109375 138.171875 228.191406 C 129.03125 217.125 123.527344 202.941406 123.527344 187.496094 C 123.527344 152.222656 152.222656 123.527344 187.496094 123.527344 C 222.773438 123.527344 251.464844 152.222656 251.464844 187.496094 C 251.464844 202.941406 245.964844 217.125 236.816406 228.1875 Z M 236.816406 228.1875 " fill-opacity="1" fill-rule="nonzero"/></g></svg>