<svg xmlns="http://www.w3.org/2000/svg" xmlns:xlink="http://www.w3.org/1999/xlink" width="500" zoomAndPan="magnify" viewBox="0 0 375 374.999991" height="500" preserveAspectRatio="xMidYMid meet" version="1.0"><defs><clipPath id="a9e6eb617e"><path d="M 114.410156 101 L 260.660156 101 L 260.660156 274 L 114.410156 274 Z M 114.410156 101 " clip-rule="nonzero"/></clipPath></defs><g clip-path="url(#a9e6eb617e)"><path fill="#feac5d" d="M 257.300781 101.210938 L 117.691406 101.210938 C 117.253906 101.210938 116.835938 101.296875 116.433594 101.460938 C 116.035156 101.628906 115.679688 101.867188 115.371094 102.171875 C 115.0625 102.480469 114.828125 102.835938 114.660156 103.238281 C 114.496094 103.636719 114.410156 104.058594 114.410156 104.492188 L 114.410156 255.914062 C 114.410156 256.5 114.441406 257.082031 114.5 257.664062 C 114.554688 258.242188 114.640625 258.820312 114.757812 259.394531 C 114.871094 259.96875 115.011719 260.53125 115.183594 261.09375 C 115.351562 261.652344 115.550781 262.199219 115.773438 262.738281 C 115.996094 263.28125 116.246094 263.808594 116.523438 264.320312 C 116.796875 264.835938 117.097656 265.335938 117.421875 265.824219 C 117.746094 266.308594 118.09375 266.777344 118.464844 267.230469 C 118.835938 267.679688 119.226562 268.113281 119.640625 268.527344 C 120.054688 268.941406 120.484375 269.332031 120.9375 269.703125 C 121.386719 270.074219 121.855469 270.421875 122.34375 270.746094 C 122.828125 271.070312 123.328125 271.371094 123.84375 271.644531 C 124.359375 271.921875 124.886719 272.171875 125.425781 272.394531 C 125.964844 272.621094 126.515625 272.816406 127.074219 272.988281 C 127.632812 273.15625 128.199219 273.300781 128.769531 273.414062 C 129.34375 273.527344 129.921875 273.613281 130.5 273.671875 C 131.082031 273.730469 131.664062 273.761719 132.25 273.761719 L 257.300781 273.761719 C 257.734375 273.761719 258.152344 273.679688 258.554688 273.511719 C 258.957031 273.34375 259.3125 273.109375 259.617188 272.800781 C 259.925781 272.492188 260.164062 272.140625 260.328125 271.738281 C 260.496094 271.335938 260.578125 270.917969 260.578125 270.480469 L 260.578125 104.492188 C 260.578125 104.058594 260.496094 103.636719 260.328125 103.238281 C 260.164062 102.835938 259.925781 102.480469 259.617188 102.171875 C 259.3125 101.867188 258.957031 101.628906 258.554688 101.460938 C 258.152344 101.296875 257.734375 101.210938 257.300781 101.210938 Z M 254.019531 235.230469 L 141.195312 235.230469 L 141.195312 107.769531 L 254.019531 107.769531 Z M 134.636719 107.769531 L 134.636719 235.230469 L 132.25 235.230469 C 130.191406 235.226562 128.195312 235.574219 126.257812 236.265625 C 124.320312 236.957031 122.558594 237.957031 120.96875 239.265625 L 120.96875 107.769531 Z M 254.019531 267.203125 L 132.25 267.203125 C 131.507812 267.203125 130.773438 267.128906 130.050781 266.984375 C 129.324219 266.839844 128.617188 266.625 127.933594 266.339844 C 127.25 266.054688 126.597656 265.707031 125.984375 265.296875 C 125.367188 264.882812 124.796875 264.414062 124.273438 263.890625 C 123.75 263.367188 123.285156 262.796875 122.871094 262.179688 C 122.460938 261.566406 122.113281 260.914062 121.828125 260.230469 C 121.546875 259.546875 121.332031 258.839844 121.1875 258.113281 C 121.042969 257.390625 120.96875 256.65625 120.96875 255.914062 L 120.96875 253.070312 C 120.96875 252.328125 121.042969 251.597656 121.1875 250.871094 C 121.332031 250.144531 121.546875 249.4375 121.832031 248.753906 C 122.113281 248.070312 122.460938 247.421875 122.871094 246.804688 C 123.285156 246.1875 123.753906 245.621094 124.277344 245.097656 C 124.800781 244.574219 125.367188 244.105469 125.984375 243.691406 C 126.601562 243.28125 127.25 242.933594 127.933594 242.652344 C 128.617188 242.367188 129.324219 242.152344 130.050781 242.007812 C 130.777344 241.863281 131.507812 241.789062 132.25 241.789062 L 254.019531 241.789062 Z M 254.019531 267.203125 " fill-opacity="1" fill-rule="nonzero"/></g><path fill="#feac5d" d="M 167.761719 174.992188 L 167.761719 212.171875 C 167.761719 212.605469 167.847656 213.023438 168.011719 213.425781 C 168.179688 213.828125 168.414062 214.183594 168.722656 214.488281 C 169.03125 214.796875 169.386719 215.035156 169.785156 215.199219 C 170.1875 215.367188 170.605469 215.449219 171.042969 215.449219 L 220.605469 215.449219 C 221.042969 215.449219 221.460938 215.367188 221.859375 215.199219 C 222.261719 215.035156 222.617188 214.796875 222.925781 214.488281 C 223.230469 214.183594 223.46875 213.828125 223.636719 213.425781 C 223.800781 213.023438 223.886719 212.605469 223.886719 212.171875 L 223.886719 175.363281 C 225.050781 174.925781 226.167969 174.390625 227.242188 173.761719 C 228.3125 173.128906 229.320312 172.410156 230.269531 171.601562 C 231.214844 170.792969 232.085938 169.910156 232.875 168.949219 C 233.667969 167.992188 234.371094 166.972656 234.988281 165.890625 C 235.601562 164.808594 236.117188 163.679688 236.535156 162.507812 C 236.953125 161.335938 237.265625 160.136719 237.476562 158.910156 C 237.683594 157.683594 237.785156 156.449219 237.78125 155.207031 C 237.773438 153.960938 237.660156 152.726562 237.4375 151.503906 C 237.214844 150.277344 236.890625 149.082031 236.457031 147.914062 C 236.027344 146.746094 235.5 145.625 234.875 144.550781 C 234.25 143.476562 233.535156 142.460938 232.730469 141.511719 C 231.929688 140.5625 231.050781 139.6875 230.09375 138.890625 C 229.140625 138.09375 228.125 137.382812 227.046875 136.761719 C 225.964844 136.144531 224.84375 135.621094 223.671875 135.195312 C 222.503906 134.773438 221.304688 134.453125 220.082031 134.238281 C 218.855469 134.023438 217.621094 133.914062 216.375 133.914062 C 215.746094 133.914062 215.121094 133.914062 214.5 134.003906 C 213.570312 132.351562 212.441406 130.84375 211.109375 129.492188 C 209.78125 128.136719 208.296875 126.980469 206.660156 126.019531 C 205.023438 125.0625 203.289062 124.332031 201.460938 123.832031 C 199.628906 123.332031 197.765625 123.082031 195.867188 123.078125 C 193.96875 123.074219 192.105469 123.320312 190.273438 123.8125 C 188.441406 124.304688 186.703125 125.027344 185.0625 125.984375 C 183.421875 126.9375 181.9375 128.089844 180.601562 129.4375 C 179.269531 130.789062 178.132812 132.289062 177.199219 133.9375 C 176.878906 133.9375 176.550781 133.9375 176.230469 133.9375 C 175.007812 133.941406 173.796875 134.042969 172.59375 134.253906 C 171.390625 134.460938 170.210938 134.769531 169.0625 135.179688 C 167.910156 135.59375 166.804688 136.097656 165.738281 136.695312 C 164.675781 137.296875 163.667969 137.984375 162.722656 138.753906 C 161.773438 139.527344 160.902344 140.375 160.097656 141.296875 C 159.296875 142.21875 158.578125 143.199219 157.945312 144.246094 C 157.3125 145.289062 156.773438 146.382812 156.328125 147.519531 C 155.878906 148.65625 155.53125 149.824219 155.285156 151.019531 C 155.039062 152.214844 154.894531 153.425781 154.855469 154.644531 C 154.816406 155.867188 154.878906 157.082031 155.050781 158.292969 C 155.21875 159.503906 155.488281 160.6875 155.859375 161.851562 C 156.230469 163.015625 156.699219 164.140625 157.261719 165.222656 C 157.824219 166.308594 158.476562 167.335938 159.21875 168.308594 C 159.957031 169.28125 160.773438 170.183594 161.667969 171.015625 C 162.5625 171.847656 163.523438 172.597656 164.546875 173.265625 C 165.570312 173.933594 166.640625 174.507812 167.761719 174.992188 Z M 217.328125 208.890625 L 174.320312 208.890625 L 174.320312 204.160156 L 217.328125 204.160156 Z M 176.230469 140.472656 C 177.019531 140.472656 177.804688 140.535156 178.582031 140.667969 L 181.140625 141.09375 L 182.148438 138.710938 C 182.433594 138.039062 182.765625 137.390625 183.144531 136.765625 C 183.523438 136.144531 183.945312 135.550781 184.410156 134.992188 C 184.875 134.429688 185.378906 133.90625 185.921875 133.421875 C 186.464844 132.933594 187.042969 132.492188 187.652344 132.089844 C 188.257812 131.6875 188.894531 131.332031 189.554688 131.023438 C 190.214844 130.714844 190.894531 130.457031 191.59375 130.25 C 192.292969 130.042969 193.003906 129.886719 193.722656 129.78125 C 194.445312 129.679688 195.171875 129.628906 195.902344 129.632812 C 196.628906 129.636719 197.355469 129.691406 198.074219 129.804688 C 198.796875 129.914062 199.503906 130.074219 200.203125 130.289062 C 200.898438 130.503906 201.574219 130.769531 202.234375 131.085938 C 202.890625 131.398438 203.523438 131.761719 204.125 132.167969 C 204.730469 132.574219 205.304688 133.023438 205.839844 133.515625 C 206.378906 134.007812 206.878906 134.535156 207.339844 135.101562 C 207.800781 135.667969 208.214844 136.261719 208.589844 136.890625 C 208.960938 137.515625 209.285156 138.167969 209.5625 138.839844 L 210.605469 141.382812 L 213.277344 140.816406 C 214.300781 140.601562 215.332031 140.492188 216.375 140.488281 C 217.277344 140.484375 218.171875 140.566406 219.0625 140.726562 C 219.949219 140.886719 220.816406 141.128906 221.660156 141.445312 C 222.503906 141.765625 223.3125 142.15625 224.085938 142.625 C 224.855469 143.089844 225.582031 143.625 226.257812 144.222656 C 226.929688 144.820312 227.546875 145.476562 228.101562 146.1875 C 228.660156 146.894531 229.144531 147.652344 229.5625 148.453125 C 229.980469 149.25 230.324219 150.082031 230.589844 150.945312 C 230.859375 151.804688 231.042969 152.683594 231.148438 153.582031 C 231.257812 154.476562 231.28125 155.375 231.222656 156.277344 C 231.164062 157.175781 231.027344 158.066406 230.804688 158.941406 C 230.585938 159.816406 230.289062 160.664062 229.914062 161.484375 C 229.539062 162.304688 229.09375 163.085938 228.578125 163.824219 C 228.0625 164.566406 227.480469 165.25 226.839844 165.886719 C 226.199219 166.519531 225.503906 167.089844 224.757812 167.597656 C 224.011719 168.105469 223.226562 168.539062 222.398438 168.90625 C 221.574219 169.269531 220.722656 169.554688 219.84375 169.761719 L 217.328125 170.363281 L 217.328125 197.601562 L 174.320312 197.601562 L 174.320312 170.246094 L 171.984375 169.542969 C 171.136719 169.289062 170.320312 168.960938 169.53125 168.5625 C 168.742188 168.164062 167.996094 167.695312 167.289062 167.164062 C 166.585938 166.632812 165.933594 166.039062 165.332031 165.390625 C 164.734375 164.742188 164.195312 164.042969 163.722656 163.300781 C 163.246094 162.554688 162.839844 161.773438 162.503906 160.953125 C 162.167969 160.136719 161.910156 159.296875 161.722656 158.429688 C 161.539062 157.566406 161.429688 156.691406 161.402344 155.808594 C 161.371094 154.925781 161.421875 154.046875 161.550781 153.171875 C 161.675781 152.296875 161.882812 151.441406 162.164062 150.601562 C 162.445312 149.765625 162.796875 148.957031 163.222656 148.183594 C 163.644531 147.410156 164.136719 146.675781 164.691406 145.988281 C 165.246094 145.300781 165.859375 144.667969 166.527344 144.089844 C 167.195312 143.511719 167.910156 142.996094 168.671875 142.546875 C 169.429688 142.097656 170.226562 141.714844 171.054688 141.40625 C 171.882812 141.097656 172.730469 140.867188 173.601562 140.707031 C 174.46875 140.550781 175.347656 140.472656 176.230469 140.472656 Z M 176.230469 140.472656 " fill-opacity="1" fill-rule="nonzero"/></svg>