<svg xmlns="http://www.w3.org/2000/svg" xmlns:xlink="http://www.w3.org/1999/xlink" width="500" zoomAndPan="magnify" viewBox="0 0 375 374.999991" height="500" preserveAspectRatio="xMidYMid meet" version="1.0"><defs><clipPath id="f1df4ff71b"><path d="M 114.53125 114.53125 L 226 114.53125 L 226 226 L 114.53125 226 Z M 114.53125 114.53125 " clip-rule="nonzero"/></clipPath></defs><path fill="#feac5d" d="M 199.417969 208.511719 L 208.507812 199.421875 L 226.96875 217.878906 L 217.878906 226.972656 Z M 199.417969 208.511719 " fill-opacity="1" fill-rule="nonzero"/><path fill="#feac5d" d="M 256.121094 236.714844 C 260.136719 240.734375 260.136719 247.25 256.121094 251.273438 L 251.269531 256.121094 C 247.246094 260.144531 240.734375 260.144531 236.714844 256.121094 L 210.71875 230.117188 C 206.695312 226.09375 206.695312 219.582031 210.710938 215.5625 L 215.5625 210.710938 C 219.582031 206.695312 226.105469 206.695312 230.121094 210.710938 Z M 256.121094 236.714844 " fill-opacity="1" fill-rule="nonzero"/><g clip-path="url(#f1df4ff71b)"><path fill="#feac5d" d="M 169.75 114.464844 C 139.210938 114.464844 114.464844 139.210938 114.464844 169.75 C 114.464844 200.289062 139.210938 225.039062 169.75 225.039062 C 200.289062 225.039062 225.039062 200.289062 225.039062 169.75 C 225.039062 139.210938 200.289062 114.464844 169.75 114.464844 Z M 169.75 214.808594 C 144.855469 214.808594 124.683594 194.640625 124.683594 169.75 C 124.683594 144.855469 144.855469 124.691406 169.75 124.691406 C 194.640625 124.691406 214.8125 144.855469 214.8125 169.75 C 214.8125 194.640625 194.640625 214.808594 169.75 214.808594 Z M 169.75 214.808594 " fill-opacity="1" fill-rule="nonzero"/></g><path fill="#feac5d" d="M 181.085938 197.117188 C 159.03125 197.117188 141.144531 179.230469 141.144531 157.171875 C 141.144531 156.585938 141.203125 156.011719 141.234375 155.425781 C 138.320312 160.136719 136.613281 165.675781 136.613281 171.613281 C 136.613281 188.671875 150.441406 202.492188 167.488281 202.492188 C 174.078125 202.492188 180.160156 200.417969 185.183594 196.90625 C 183.835938 197.054688 182.464844 197.117188 181.085938 197.117188 Z M 181.085938 197.117188 " fill-opacity="1" fill-rule="nonzero"/></svg>