<svg xmlns="http://www.w3.org/2000/svg" xmlns:xlink="http://www.w3.org/1999/xlink" width="500" zoomAndPan="magnify" viewBox="0 0 375 374.999991" height="500" preserveAspectRatio="xMidYMid meet" version="1.0"><defs><clipPath id="0ed3fad6cf"><path d="M 114.34375 84.738281 L 260.585938 84.738281 L 260.585938 290.238281 L 114.34375 290.238281 Z M 114.34375 84.738281 " clip-rule="nonzero"/></clipPath></defs><g clip-path="url(#0ed3fad6cf)"><path fill="#feac5d" d="M 151.058594 113.972656 C 151.234375 106.328125 157.488281 100.1875 165.175781 100.1875 L 172.050781 100.1875 C 172.050781 91.664062 178.972656 84.738281 187.5 84.738281 C 196.027344 84.738281 202.949219 91.664062 202.949219 100.1875 C 202.949219 100.1875 209.824219 100.1875 209.824219 100.1875 C 217.507812 100.1875 223.761719 106.328125 223.941406 113.972656 L 238.507812 113.972656 C 250.742188 113.972656 260.65625 123.894531 260.65625 136.125 C 260.65625 168.203125 260.65625 236.023438 260.65625 268.101562 C 260.65625 280.335938 250.742188 290.253906 238.507812 290.253906 C 212.203125 290.253906 162.796875 290.253906 136.492188 290.253906 C 124.257812 290.253906 114.34375 280.335938 114.34375 268.101562 C 114.34375 236.023438 114.34375 168.203125 114.34375 136.125 C 114.34375 123.894531 124.257812 113.972656 136.492188 113.972656 Z M 223.945312 123.242188 L 238.507812 123.242188 C 245.625 123.242188 251.386719 129.011719 251.386719 136.125 C 251.386719 168.203125 251.386719 236.023438 251.386719 268.101562 C 251.386719 275.214844 245.625 280.984375 238.507812 280.984375 C 238.507812 280.984375 136.515625 280.984375 136.492188 280.984375 C 129.378906 280.984375 123.609375 275.214844 123.609375 268.101562 C 123.609375 236.023438 123.609375 168.203125 123.609375 136.125 C 123.609375 129.011719 129.378906 123.242188 136.492188 123.242188 L 151.054688 123.242188 L 151.054688 124.578125 C 151.054688 132.378906 157.375 138.699219 165.175781 138.699219 C 178.042969 138.699219 196.953125 138.699219 209.824219 138.699219 C 217.621094 138.699219 223.945312 132.378906 223.945312 124.578125 Z M 239.496094 249.195312 L 135.503906 249.195312 L 135.503906 255.171875 L 239.496094 255.171875 Z M 239.496094 224.09375 L 135.503906 224.09375 L 135.503906 230.074219 L 239.496094 230.074219 Z M 239.496094 199 L 135.503906 199 L 135.503906 204.976562 L 239.496094 204.976562 Z M 239.496094 173.898438 L 135.503906 173.898438 L 135.503906 179.878906 L 239.496094 179.878906 Z M 239.496094 148.796875 L 135.503906 148.796875 L 135.503906 154.777344 L 239.496094 154.777344 Z M 187.5 90.382812 C 190.054688 90.382812 192.136719 92.460938 192.136719 95.015625 C 192.136719 97.574219 190.054688 99.648438 187.5 99.648438 C 184.941406 99.648438 182.867188 97.574219 182.867188 95.015625 C 182.867188 92.460938 184.941406 90.382812 187.5 90.382812 Z M 187.5 90.382812 " fill-opacity="1" fill-rule="evenodd"/></g></svg>